<svg width="17" height="16" viewBox="0 0 17 16" fill="none" xmlns="http://www.w3.org/2000/svg">
<path fill-rule="evenodd" clip-rule="evenodd" d="M1.46358 0H14.7969C15.1505 0 15.4897 0.140476 15.7397 0.390524C15.9898 0.640573 16.1302 0.979711 16.1302 1.33333V14.6667C16.1302 15.0203 15.9898 15.3594 15.7397 15.6095C15.4897 15.8595 15.1505 16 14.7969 16H1.46358C1.10996 16 0.770822 15.8595 0.520773 15.6095C0.270725 15.3594 0.130249 15.0203 0.130249 14.6667V1.33333C0.130249 0.979711 0.270725 0.640573 0.520773 0.390524C0.770822 0.140476 1.10996 0 1.46358 0ZM5.738 3.21675C6.42997 2.93013 7.17161 2.78261 7.92059 2.78261C8.66957 2.78261 9.41122 2.93013 10.1032 3.21675C10.7951 3.50337 11.4239 3.92348 11.9535 4.45309C12.4831 4.9827 12.9032 5.61144 13.1898 6.3034C13.4765 6.99537 13.624 7.73701 13.624 8.48599C13.624 11.0069 11.9928 13.14 9.72856 13.9042C9.43769 13.9555 9.34644 13.773 9.34644 13.619V12.0563C9.34644 11.5259 9.15823 11.178 8.9529 11.0012C10.2248 10.8586 11.5594 10.3795 11.5594 8.20082C11.5594 7.56775 11.3426 7.06015 10.9719 6.65521C11.0289 6.51262 11.2286 5.91947 10.9149 5.14951C10.9149 5.14951 10.4358 4.99552 9.34644 5.73126C8.89587 5.60578 8.40538 5.54305 7.92059 5.54305C7.4358 5.54305 6.94531 5.60578 6.49474 5.73126C5.4054 4.99552 4.92631 5.14951 4.92631 5.14951C4.61263 5.91947 4.81225 6.51262 4.86928 6.65521C4.49856 7.06015 4.28183 7.56775 4.28183 8.20082C4.28183 10.3738 5.61072 10.8643 6.87687 11.0069C6.71718 11.1495 6.56889 11.4004 6.51756 11.7711C6.19247 11.908 5.35407 12.1647 4.85787 11.2978C4.85787 11.2978 4.55559 10.7502 3.98525 10.7103C3.98525 10.7103 3.42632 10.6989 3.94533 11.0525C3.94533 11.0525 4.31605 11.2293 4.57841 11.8909C4.57841 11.8909 4.91491 12.9974 6.49474 12.6552V13.619C6.49474 13.773 6.40349 13.9498 6.11832 13.9042C3.85408 13.1457 2.21721 11.0069 2.21721 8.48599C2.21721 6.97336 2.8181 5.52268 3.88769 4.45309C4.4173 3.92348 5.04603 3.50337 5.738 3.21675Z" fill="#EADF9D"/>
</svg>
