<svg width="17" height="16" viewBox="0 0 17 16" fill="none" xmlns="http://www.w3.org/2000/svg">
<path fill-rule="evenodd" clip-rule="evenodd" d="M7.68617 5.57971C8.00691 5.45082 8.35008 5.38697 8.69571 5.39186C9.38756 5.39186 10.0511 5.66617 10.5403 6.15538C11.0295 6.64459 11.3043 7.3081 11.3043 7.99994C11.3043 8.69179 11.0295 9.3553 10.5403 9.84451C10.0511 10.3337 9.38756 10.6085 8.69571 10.6085C8.35008 10.6134 8.00691 10.5496 7.68617 10.4207C7.36542 10.2918 7.0735 10.1005 6.82735 9.85776C6.5812 9.61507 6.38574 9.32588 6.25233 9.00699C6.11892 8.6881 6.05022 8.34588 6.05022 8.0002C6.05022 7.65453 6.11892 7.31231 6.25233 6.99342C6.38574 6.67453 6.5812 6.38534 6.82735 6.14264C7.0735 5.89995 7.36542 5.7086 7.68617 5.57971ZM9.30341 6.54601C9.11021 6.46911 8.90362 6.43147 8.69571 6.4353L8.69623 6.43478C8.28113 6.43478 7.88302 6.59968 7.5895 6.8932C7.29597 7.18673 7.13107 7.58484 7.13107 7.99994C7.13107 8.41505 7.29597 8.81316 7.5895 9.10668C7.88302 9.40021 8.28113 9.56511 8.69623 9.56511C8.90415 9.56887 9.11072 9.53116 9.3039 9.45419C9.49707 9.37722 9.67297 9.26253 9.82132 9.11681C9.96967 8.9711 10.0875 8.79728 10.1679 8.60551C10.2483 8.41375 10.2897 8.20788 10.2897 7.99994C10.2897 7.79199 10.2482 7.58614 10.1677 7.3944C10.0872 7.20267 9.96935 7.02889 9.82095 6.88322C9.67255 6.73756 9.49661 6.62292 9.30341 6.54601Z" fill="#EADF9D"/>
<path d="M10.9906 4.80908C11.1073 4.68761 11.2664 4.61601 11.4347 4.60928V4.60823C11.6077 4.60823 11.7736 4.67694 11.8959 4.79924C12.0182 4.92155 12.0869 5.08742 12.0869 5.26038C12.0869 5.43335 12.0182 5.59922 11.8959 5.72152C11.7736 5.84383 11.6077 5.91254 11.4347 5.91254C11.2664 5.9058 11.1073 5.8342 10.9906 5.71273C10.8739 5.59126 10.8087 5.42935 10.8087 5.26091C10.8087 5.09246 10.8739 4.93055 10.9906 4.80908Z" fill="#EADF9D"/>
<path fill-rule="evenodd" clip-rule="evenodd" d="M2.02901 0H15.3623C15.716 0 16.0551 0.140476 16.3052 0.390524C16.5552 0.640573 16.6957 0.979711 16.6957 1.33333V14.6667C16.6957 15.0203 16.5552 15.3594 16.3052 15.6095C16.0551 15.8595 15.716 16 15.3623 16H2.02901C1.67539 16 1.33625 15.8595 1.0862 15.6095C0.836154 15.3594 0.695679 15.0203 0.695679 14.6667V1.33333C0.695679 0.979711 0.836154 0.640573 1.0862 0.390524C1.33625 0.140476 1.67539 0 2.02901 0ZM10.3741 2.79473C9.99348 2.78562 9.61276 2.78179 9.23204 2.78325L8.15938 2.78273C7.77883 2.78181 7.39829 2.78616 7.01786 2.79577L6.91664 2.79838L6.54518 2.81403C5.98954 2.84012 5.6113 2.92777 5.27844 3.05663C4.93043 3.18788 4.61527 3.39354 4.35499 3.65922C4.08889 3.91927 3.88303 4.23448 3.75188 4.58267C3.62302 4.91553 3.53537 5.29377 3.50928 5.84941C3.50302 5.98819 3.4978 6.10401 3.49363 6.22087L3.48998 6.32209C3.48087 6.70252 3.47704 7.08307 3.4785 7.46361V8.53627C3.47758 8.917 3.48192 9.29772 3.49154 9.67832L3.49415 9.77953C3.49877 9.90338 3.50399 10.0272 3.5098 10.151C3.53589 10.7061 3.62354 11.0849 3.7524 11.4172C3.88347 11.7655 4.08894 12.081 4.35447 12.3417C4.61493 12.6072 4.93028 12.8125 5.27844 12.9433C5.6113 13.0716 5.99007 13.1603 6.54518 13.1864C6.66897 13.1923 6.79279 13.1975 6.91664 13.202L7.01786 13.2052C7.39847 13.2144 7.77918 13.2184 8.1599 13.2172H8.84284L9.23204 13.2166C9.61276 13.2179 9.99348 13.2139 10.3741 13.2046L10.4753 13.2015C10.5888 13.1975 10.7008 13.1924 10.8347 13.1864L10.8468 13.1859C11.4019 13.1598 11.7807 13.0721 12.113 12.9433C12.4611 12.8122 12.7766 12.6069 13.0375 12.3417C13.3031 12.0812 13.5084 11.7656 13.639 11.4172C13.7674 11.0849 13.8561 10.7061 13.8821 10.151L13.8827 10.1376C13.8887 10.0043 13.8938 9.89263 13.8978 9.77953L13.9009 9.67832C13.9102 9.29771 13.9142 8.91699 13.9129 8.53627V7.85282L13.9124 7.46361C13.9137 7.08307 13.9097 6.70252 13.9004 6.32209L13.8973 6.22087C13.8931 6.10401 13.8879 5.98819 13.8816 5.84941C13.8555 5.2943 13.7679 4.915 13.639 4.58267C13.508 4.23465 13.3027 3.91935 13.0375 3.6587C12.7474 3.36862 12.4573 3.18915 12.113 3.05663C11.7807 2.92777 11.4019 2.84012 10.8468 2.81403L10.834 2.81346C10.7004 2.80745 10.5886 2.80243 10.4753 2.79838L10.3741 2.79473Z" fill="#EADF9D"/>
</svg>
