<svg width="16" height="16" viewBox="0 0 16 16" fill="none" xmlns="http://www.w3.org/2000/svg">
<path d="M14.6667 0H1.33333C0.979711 0 0.640573 0.140476 0.390524 0.390524C0.140476 0.640573 0 0.979711 0 1.33333V14.6667C0 15.0203 0.140476 15.3594 0.390524 15.6095C0.640573 15.8595 0.979711 16 1.33333 16H14.6667C15.0203 16 15.3594 15.8595 15.6095 15.6095C15.8595 15.3594 16 15.0203 16 14.6667V1.33333C16 0.979711 15.8595 0.640573 15.6095 0.390524C15.3594 0.140476 15.0203 0 14.6667 0ZM8.0475 13.1383L7.5925 13.5925C6.90186 14.2652 5.97408 14.6388 5.01 14.6324C4.04593 14.6261 3.12314 14.2403 2.44142 13.5586C1.7597 12.8769 1.37391 11.9541 1.36756 10.99C1.36121 10.0259 1.73482 9.09814 2.4075 8.4075L4.4075 6.4075C5.00793 5.80864 5.79706 5.43597 6.64099 5.35273C7.48491 5.26949 8.33165 5.48082 9.0375 5.95083C9.18447 6.04918 9.28636 6.20189 9.32074 6.37536C9.35512 6.54884 9.31918 6.72886 9.22083 6.87583C9.12248 7.02281 8.96977 7.12469 8.7963 7.15907C8.62283 7.19346 8.44281 7.15752 8.29583 7.05917C7.84695 6.75944 7.30803 6.62462 6.77089 6.67765C6.23375 6.73068 5.73161 6.96829 5.35 7.35L3.35 9.35C2.91239 9.78761 2.66655 10.3811 2.66655 11C2.66655 11.3064 2.7269 11.6099 2.84417 11.893C2.96144 12.1761 3.13332 12.4333 3.35 12.65C3.56668 12.8667 3.82392 13.0386 4.10703 13.1558C4.39013 13.2731 4.69357 13.3335 5 13.3335C5.61887 13.3335 6.21239 13.0876 6.65 12.65L7.10417 12.195C7.22926 12.0699 7.39892 11.9996 7.57583 11.9996C7.75274 11.9996 7.92241 12.0699 8.0475 12.195C8.17259 12.3201 8.24287 12.4898 8.24287 12.6667C8.24287 12.8436 8.17259 13.0132 8.0475 13.1383ZM13.5925 7.5925L11.5925 9.5925C10.9921 10.1914 10.2029 10.564 9.35901 10.6473C8.51508 10.7305 7.66835 10.5192 6.9625 10.0492C6.81553 9.95082 6.71364 9.79811 6.67926 9.62464C6.64488 9.45117 6.68082 9.27114 6.77917 9.12417C6.87752 8.97719 7.03023 8.87531 7.2037 8.84093C7.37717 8.80654 7.55719 8.84248 7.70417 8.94083C8.15337 9.23963 8.69207 9.3739 9.22896 9.3209C9.76585 9.26789 10.2679 9.03087 10.65 8.65L12.65 6.65C13.0876 6.21239 13.3335 5.61887 13.3335 5C13.3335 4.38113 13.0876 3.78761 12.65 3.35C12.2124 2.91239 11.6189 2.66655 11 2.66655C10.3811 2.66655 9.78761 2.91239 9.35 3.35L8.89583 3.805C8.77074 3.93009 8.60108 4.00037 8.42417 4.00037C8.24726 4.00037 8.07759 3.93009 7.9525 3.805C7.82741 3.67991 7.75713 3.51024 7.75713 3.33333C7.75713 3.15642 7.82741 2.98676 7.9525 2.86167L8.4075 2.4075C9.09814 1.73482 10.0259 1.36121 10.99 1.36756C11.9541 1.37391 12.8769 1.7597 13.5586 2.44142C14.2403 3.12314 14.6261 4.04593 14.6324 5.01C14.6388 5.97408 14.2652 6.90186 13.5925 7.5925Z" fill="#EADF9D"/>
</svg>
