<svg width="17" height="16" viewBox="0 0 17 16" fill="none" xmlns="http://www.w3.org/2000/svg">
<path fill-rule="evenodd" clip-rule="evenodd" d="M1.89852 0H15.2319C15.5855 0 15.9246 0.140476 16.1747 0.390524C16.4247 0.640573 16.5652 0.979711 16.5652 1.33333V14.6667C16.5652 15.0203 16.4247 15.3594 16.1747 15.6095C15.9246 15.8595 15.5855 16 15.2319 16H1.89852C1.5449 16 1.20576 15.8595 0.95571 15.6095C0.705661 15.3594 0.565186 15.0203 0.565186 14.6667V1.33333C0.565186 0.979711 0.705661 0.640573 0.95571 0.390524C1.20576 0.140476 1.5449 0 1.89852 0ZM3.50866 12.5215H5.52779V6.01935H3.50866V12.5215ZM3.34779 3.95196C3.34779 4.59761 3.87149 5.13239 4.51714 5.13239C5.16258 5.13239 5.68649 4.59761 5.68649 3.95196C5.68649 3.64183 5.56329 3.3444 5.344 3.1251C5.1247 2.90581 4.82727 2.78261 4.51714 2.78261C4.20701 2.78261 3.90958 2.90581 3.69029 3.1251C3.47099 3.3444 3.34779 3.64183 3.34779 3.95196ZM11.07 12.5215H13.0869V8.94978C13.0869 7.20196 12.7113 5.8563 10.6678 5.8563C9.6854 5.8563 9.02692 6.39543 8.75736 6.9063H8.7291V6.01935H6.79258V12.5215H8.80953V9.30196C8.80953 8.45413 8.9704 7.63457 10.0202 7.63457C11.0548 7.63457 11.07 8.60196 11.07 9.3563V12.5215Z" fill="#EADF9D"/>
</svg>
